<svg version="1.1" xmlns="http://www.w3.org/2000/svg">
    <path id="amazon"        class="svg_path" d="M.045 18.02c.072-.116.187-.124.348-.022 3.636 2.11 7.594 3.166 11.87 3.166 2.852 0 5.668-.533 8.447-1.595l.315-.14c.138-.06.234-.1.293-.13.226-.088.39-.046.525.13.12.174.09.336-.12.48-.256.19-.6.41-1.006.654-1.244.743-2.64 1.316-4.185 1.726-1.53.406-3.045.61-4.516.61-2.265 0-4.41-.396-6.435-1.187-2.02-.794-3.82-1.91-5.43-3.35-.1-.074-.15-.15-.15-.22 0-.047.02-.09.05-.13zm6.565-6.218c0-1.005.247-1.863.743-2.577.495-.71 1.17-1.25 2.04-1.615.796-.335 1.756-.575 2.912-.72.39-.046 1.033-.103 1.92-.174v-.37c0-.93-.105-1.558-.3-1.875-.302-.43-.78-.65-1.44-.65h-.182c-.48.046-.896.196-1.246.46-.35.27-.575.63-.675 1.096-.06.3-.206.465-.435.51l-2.52-.315c-.248-.06-.372-.18-.372-.39 0-.046.007-.09.022-.15.247-1.29.855-2.25 1.82-2.88.976-.616 2.1-.975 3.39-1.05h.54c1.65 0 2.957.434 3.888 1.29.135.15.27.3.405.48.12.165.224.314.283.45.075.134.15.33.195.57.06.254.105.42.135.51.03.104.062.3.076.615.01.313.02.493.02.553v5.28c0 .376.06.72.165 1.036.105.313.21.54.315.674l.51.674c.09.136.136.256.136.36 0 .12-.06.226-.18.314-1.2 1.05-1.86 1.62-1.963 1.71-.165.135-.375.15-.63.045-.195-.166-.375-.332-.526-.496l-.31-.347c-.06-.074-.166-.21-.317-.42l-.3-.435c-.81.886-1.603 1.44-2.4 1.665-.494.15-1.093.227-1.83.227-1.11 0-2.04-.343-2.76-1.034-.72-.69-1.08-1.665-1.08-2.94l-.05-.076zm3.753-.438c0 .566.14 1.02.425 1.364.285.34.675.512 1.155.512.045 0 .106-.007.195-.02.09-.016.134-.023.166-.023.614-.16 1.08-.553 1.424-1.178.165-.28.285-.58.36-.91.09-.32.12-.59.135-.8.015-.195.015-.54.015-1.005v-.54c-.84 0-1.484.06-1.92.18-1.275.36-1.92 1.17-1.92 2.43l-.035-.02zm9.162 7.027c.03-.06.075-.11.132-.17.362-.243.714-.41 1.05-.5.55-.133 1.09-.222 1.612-.24.14-.012.28 0 .41.03.65.06 1.05.168 1.172.33.063.09.09.228.09.39v.15c0 .51-.14 1.11-.415 1.8-.278.69-.664 1.248-1.156 1.68-.073.06-.14.09-.197.09-.03 0-.06 0-.09-.012-.09-.044-.107-.12-.064-.24.54-1.26.806-2.143.806-2.64 0-.15-.03-.27-.087-.344-.145-.166-.55-.257-1.224-.257-.243 0-.533.016-.87.046-.363.045-.7.09-1 .135-.09 0-.148-.014-.18-.044-.03-.03-.036-.047-.02-.077 0-.017.006-.03.02-.063v-.06z"/>
    <path id="apple"         class="svg_path" d="M7.078 23.55c-.473-.316-.893-.703-1.244-1.15-.383-.463-.738-.95-1.064-1.454-.766-1.12-1.365-2.345-1.78-3.636-.5-1.502-.743-2.94-.743-4.347 0-1.57.34-2.94 1.002-4.09.49-.9 1.22-1.653 2.1-2.182.85-.53 1.84-.82 2.84-.84.35 0 .73.05 1.13.15.29.08.64.21 1.07.37.55.21.85.34.95.37.32.12.59.17.8.17.16 0 .39-.05.645-.13.145-.05.42-.14.81-.31.386-.14.692-.26.935-.35.37-.11.728-.21 1.05-.26.39-.06.777-.08 1.148-.05.71.05 1.36.2 1.94.42 1.02.41 1.843 1.05 2.457 1.96-.26.16-.5.346-.725.55-.487.43-.9.94-1.23 1.505-.43.77-.65 1.64-.644 2.52.015 1.083.29 2.035.84 2.86.387.6.904 1.114 1.534 1.536.31.21.582.355.84.45-.12.375-.252.74-.405 1.1-.347.807-.76 1.58-1.25 2.31-.432.63-.772 1.1-1.03 1.41-.402.48-.79.84-1.18 1.097-.43.285-.935.436-1.452.436-.35.015-.7-.03-1.034-.127-.29-.095-.576-.202-.856-.323-.293-.134-.596-.248-.905-.34-.38-.1-.77-.148-1.164-.147-.4 0-.79.05-1.16.145-.31.088-.61.196-.907.325-.42.175-.695.29-.855.34-.324.096-.656.154-.99.175-.52 0-1.004-.15-1.486-.45zm6.854-18.46c-.68.34-1.326.484-1.973.436-.1-.646 0-1.31.27-2.037.24-.62.56-1.18 1-1.68.46-.52 1.01-.95 1.63-1.26.66-.34 1.29-.52 1.89-.55.08.68 0 1.35-.25 2.07-.228.64-.568 1.23-1 1.76-.435.52-.975.95-1.586 1.26z"/>
    <path id="download"      class="svg_path" d="M10.125 0h3.75c.623 0 1.125.502 1.125 1.125v7.875h4.111c.834 0 1.252 1.008.661 1.598L12.642 17.733c-.352.352-.928.352-1.28 0L4.223 10.598c-.591-.591-.173-1.598.661-1.598H9V1.125c0-.623.502-1.125 1.125-1.125zm13.875 17.625v5.25c0 .623-.502 1.125-1.125 1.125H1.125c-.623 0-1.125-.502-1.125-1.125V17.625c0-.623.502-1.125 1.125-1.125h6.877l2.297 2.297c.942.942 2.461.942 3.403 0l2.297-2.297H22.875c.623 0 1.125.502 1.125 1.125zm-5.812 4.125c0-.516-.422-.937-.937-.937s-.937.422-.937.938 .422.938 .938.938 .938-.422.938-.937zm3 0c0-.516-.422-.937-.937-.937s-.937.422-.937.938 .422.938 .938.938 .938-.422.938-.937z"/>
    <path id="github"        class="svg_path" d="M12 .297c-6.63 0-12 5.373-12 12 0 5.303 3.438 9.8 8.205 11.385.6.113.82-.258.82-.577 0-.285-.01-1.04-.015-2.04-3.338.724-4.042-1.61-4.042-1.61C4.422 18.07 3.633 17.7 3.633 17.7c-1.087-.744.084-.729.084-.729 1.205.084 1.838 1.236 1.838 1.236 1.07 1.835 2.809 1.305 3.495.998.108-.776.417-1.305.76-1.605-2.665-.3-5.466-1.332-5.466-5.93 0-1.31.465-2.38 1.235-3.22-.135-.303-.54-1.523.105-3.176 0 0 1.005-.322 3.3 1.23.96-.267 1.98-.399 3-.405 1.02.006 2.04.138 3 .405 2.28-1.552 3.285-1.23 3.285-1.23.645 1.653.24 2.873.12 3.176.765.84 1.23 1.91 1.23 3.22 0 4.61-2.805 5.625-5.475 5.92.42.36.81 1.096.81 2.22 0 1.606-.015 2.896-.015 3.286 0 .315.21.69.825.57C20.565 22.092 24 17.592 24 12.297c0-6.627-5.373-12-12-12"/>
    <path id="playstore"     class="svg_path" d="M1.22 0c-.03.093-.06.185-.06.308v23.229c0 .217.061.34.184.463l11.415-12.093L1.22 0zm12.309 12.708l2.951 3.045-4.213 2.4s-5.355 3.044-8.308 4.739l9.57-10.184zm.801-.831l3.166 3.292c.496-.276 4.371-2.492 4.924-2.8.584-.338.525-.8.029-1.046-.459-.255-4.334-2.475-4.92-2.835l-3.203 3.392.004-.003zm-.803-.8l2.984-3.169-4.259-2.431S5.309 1.505 2.999.179l10.53 10.898h-.002z"/>
    <path id="home"          class="svg_path" d="M20.331 14.354V20.325c0 .554-.446 1-1 1H14.498c-.275 0-.5-.225-.5-.5V16.158c0-.275-.225-.5-.5-.5h-3c-.275 0-.5.225-.5.5v4.667c0 .275-.225.5-.5.5H4.665c-.554 0-1-.446-1-1V14.354c0-.15.067-.292.183-.388l7.833-6.45c.183-.15.45-.15.637 0l7.833 6.45c.113.096 .179.238 .179.388zm3.483-2.538L20.331 8.946V3.175c0-.275-.225-.5-.5-.5h-2.333c-.275 0-.5.225-.5.5V6.2l-3.729-3.071c-.737-.608-1.804-.608-2.542 0L.181 11.817c-.212.175-.242.492-.067.704l1.063 1.292c.175.213 .492.242 .704.067l9.8-8.071c.183-.15.45-.15.637 0l9.8 8.071c.213.175 .529.146 .704-.067l1.063-1.292c.175-.217.142-.529-.071-.704z"/>
    <path id="sourceforge"   class="svg_path" d="M2.43 11.361c0-.372.303-.705.675-.705h6.968c.271-.003.486-.219.486-.488V8.713c0-.27-.219-.487-.488-.487H2.43C1.088 8.227 0 9.314 0 10.654v2.695c0 1.342 1.086 2.431 2.426 2.431h5.021c.372 0 .676.331.676.706v1.282c0 .371-.304.707-.676.707H.486c-.271 0-.485.217-.485.486v1.453c0 .268.216.486.485.486H8.13c1.34 0 2.426-1.087 2.426-2.427v-2.697c0-1.34-1.086-2.428-2.427-2.428H3.104c-.372 0-.675-.334-.675-.704v-1.283zm21.088-3.13h-5.024V5.525h5.02c.266 0 .483-.217.483-.486V3.585c0-.271-.215-.486-.484-.486h-5.019c-1.34 0-2.427 1.087-2.427 2.427v2.706H13.74c-.27 0-.484.218-.484.485v1.459c0 .268.216.484.483.484h2.325v7.953c0 .24.099.284.303.284.488 0 2.124-.91 2.124-1.688v-6.551h5.024c.266 0 .484-.218.484-.484v-1.46c0-.266-.219-.483-.484-.483h.003z"/>
    <path id="wiki"          class="svg_path" d="M22.5 16.875V1.125c0-.623-.502-1.125-1.125-1.125H6C3.516 0 1.5 2.016 1.5 4.5v15c0 2.484 2.016 4.5 4.5 4.5h15.375c.623 0 1.125-.502 1.125-1.125v-.75c0-.352-.164-.67-.417-.877-.197-.722-.197-2.78 0-3.502.253-.202.417-.52.417-.872zM7.5 6.281c0-.155.127-.281.281-.281h9.938c.155 0 .281.127 .281.281v.938c0 .155-.127.281-.281.281H7.781c-.155 0-.281-.127-.281-.281v-.937zm0 3c0-.155.127-.281.281-.281h9.938c.155 0 .281.127 .281.281v.938c0 .155-.127.281-.281.281H7.781c-.155 0-.281-.127-.281-.281v-.937zm11.878 11.719H6c-.83 0-1.5-.67-1.5-1.5 0-.825.675-1.5 1.5-1.5h13.378c-.089.802-.089 2.198 0 3z"/>
    <path id="windows"       class="svg_path" d="M0 3.449L9.75 2.1v9.451H0m10.949-9.602L24 0v11.4H10.949M0 12.6h9.75v9.451L0 20.699M10.949 12.6H24V24l-12.9-1.801"/>
    <path id="alternativeto" class="svg_path" d="M10.664 3.548c-1.58.136-2.686.614-3.005 1.303-.103.211-.112.3-.112.914 0 .787.047 .938.356 1.111.258 .15.623 .141 1.284-.033 1.838-.473 3.389-.408 4.031.173 .281.253 .408.478 .497.9 .098.469 .103.459-.202.492-1.003.117-2.208.384-3.014.666-2.93 1.017-4.406 3.056-4.406 6.075 0 1.542.548 2.855 1.612 3.872.67 .633 1.481 1.055 2.419 1.256.609 .131 1.767.122 2.297-.023.516-.136 1.167-.45 1.519-.722l.277-.22.127 .248c.089.183 .173.272 .328.361 .206.113 .239.117 1.27.131 .708.009 1.13-.005 1.266-.037.258-.07.53-.338.6-.586.07-.262.07-11.081 0-11.672-.272-2.213-1.664-3.6-4.064-4.055-.872-.164-2.213-.23-3.08-.155zm3.108 10.045c-.014 1.636-.023 1.725-.122 2.006-.131.361-.277.605-.506.825-.652.633-1.903.572-2.475-.127-.427-.525-.591-1.359-.431-2.236.248-1.369 1.12-2.095 3.122-2.602l.398-.098.014 .258c.009.145 .009 1.031 0 1.973z"/>
    <path id="reddit"        class="svg_path" d="M2.204 14.049c-.06.276-.091.56-.091.847 0 3.443 4.402 6.249 9.814 6.249 5.41 0 9.812-2.804 9.812-6.249 0-.274-.029-.546-.082-.809l-.015-.032c-.021-.055-.029-.11-.029-.165-.302-1.175-1.117-2.241-2.296-3.103-.045-.016-.088-.039-.126-.07-.026-.02-.045-.042-.067-.064-1.792-1.234-4.356-2.008-7.196-2.008-2.815 0-5.354.759-7.146 1.971-.014.018-.029.033-.049.049-.039.033-.084.06-.13.075-1.206.862-2.042 1.937-2.354 3.123 0 .058-.014.114-.037.171l-.008.015zm9.773 5.441c-1.794 0-3.057-.389-3.863-1.197-.173-.174-.173-.457 0-.632.176-.165.46-.165.635 0 .63.629 1.685.943 3.228.943 1.542 0 2.591-.3 3.219-.929.165-.164.45-.164.629 0 .165.18.165.465 0 .645-.809.808-2.065 1.198-3.862 1.198l.014-.028zm-3.606-7.573c-.914 0-1.677.765-1.677 1.677 0 .91.763 1.65 1.677 1.65s1.651-.74 1.651-1.65c0-.912-.739-1.677-1.651-1.677zm7.233 0c-.914 0-1.678.765-1.678 1.677 0 .91.764 1.65 1.678 1.65s1.651-.74 1.651-1.65c0-.912-.739-1.677-1.651-1.677zm4.548-1.595c1.037.833 1.8 1.821 2.189 2.904.45-.336.719-.864.719-1.449 0-1.002-.815-1.816-1.818-1.816-.399 0-.778.129-1.09.363v-.002zM2.711 9.963c-1.003 0-1.817.816-1.817 1.818 0 .543.239 1.048.644 1.389.401-1.079 1.172-2.053 2.213-2.876-.302-.21-.663-.329-1.039-.329v-.002zm9.217 12.079c-5.906 0-10.709-3.205-10.709-7.142 0-.275.023-.544.068-.809C.494 13.598 0 12.729 0 11.777c0-1.496 1.227-2.713 2.725-2.713.674 0 1.303.246 1.797.682 1.856-1.191 4.357-1.941 7.112-1.992l1.812-5.524.404.095s.016 0 .016.002l4.223.993c.344-.798 1.138-1.36 2.065-1.36 1.229 0 2.231 1.004 2.231 2.234 0 1.232-1.003 2.234-2.231 2.234s-2.23-1.004-2.23-2.23l-3.851-.912-1.467 4.477c2.65.105 5.047.854 6.844 2.021.494-.464 1.144-.719 1.833-.719 1.498 0 2.718 1.213 2.718 2.711 0 .987-.54 1.886-1.378 2.365.029.255.059.494.059.749-.015 3.938-4.806 7.143-10.72 7.143l-.034.009zm8.179-19.187c-.74 0-1.34.599-1.34 1.338 0 .738.6 1.34 1.34 1.34.732 0 1.33-.6 1.33-1.334 0-.733-.598-1.332-1.347-1.332l.017-.012z"/>
    <path id="stackoverflow" class="svg_path" d="M18.986 21.865v-6.404h2.134V24H1.844v-8.539h2.13v6.404h15.012zM6.111 19.731H16.85v-2.137H6.111v2.137zm.259-4.852l10.48 2.189.451-2.07-10.478-2.187-.453 2.068zm1.359-5.056l9.705 4.53.903-1.95-9.706-4.53-.902 1.936v.014zm2.715-4.785l8.217 6.855 1.359-1.62-8.216-6.853-1.35 1.617-.01.001zM15.751 0l-1.746 1.294 6.405 8.604 1.746-1.294L15.749 0h.002z"/>
    <path id="goodreads"     class="svg_path" d="M19.525 15.977V.49h-2.059v2.906h-.064c-.211-.455-.481-.891-.842-1.307-.36-.412-.767-.777-1.232-1.094-.466-.314-.962-.561-1.519-.736C13.256.09 12.669 0 12.038 0c-1.21 0-2.3.225-3.246.67-.947.447-1.743 1.057-2.385 1.83-.642.773-1.133 1.676-1.47 2.711-.336 1.037-.506 2.129-.506 3.283 0 1.199.141 2.326.425 3.382.286 1.057.737 1.976 1.368 2.762.631.78 1.412 1.397 2.375 1.833.961.436 2.119.661 3.471.661 1.248 0 2.33-.315 3.262-.946s1.638-1.473 2.119-2.525h.061v2.284c0 2.044-.421 3.607-1.264 4.705-.84 1.081-2.224 1.638-4.146 1.638-.572 0-1.128-.061-1.669-.181-.542-.12-1.036-.315-1.487-.57-.437-.271-.827-.601-1.143-1.038-.316-.435-.526-.961-.632-1.593H5.064c.067.887.315 1.654.737 2.3.424.646.961 1.172 1.602 1.593.641.406 1.367.706 2.172.902.811.194 1.639.3 2.494.3 1.383 0 2.541-.195 3.486-.555.947-.376 1.714-.902 2.301-1.608.601-.708 1.021-1.549 1.293-2.556.27-1.007.42-2.134.42-3.367l-.044.062zm-7.484-.557c-.955 0-1.784-.189-2.479-.571-.697-.38-1.277-.882-1.732-1.503-.467-.621-.797-1.332-1.022-2.139s-.332-1.633-.332-2.484c0-.871.105-1.725.301-2.563.21-.84.54-1.587.992-2.24.451-.652 1.037-1.182 1.728-1.584s1.533-.605 2.51-.605 1.803.209 2.495.621c.676.415 1.247.959 1.683 1.634.436.677.751 1.429.947 2.255.195.826.285 1.656.285 2.482 0 .852-.12 1.678-.345 2.484-.226.807-.572 1.518-1.038 2.139-.465.621-1.021 1.123-1.698 1.503-.676.382-1.458.571-2.359.571h.064z"/>
    <path id="delphipraxis"  class="svg_path" d="M3.301 5.558.603 18.442H5.147C6.289 18.442 7.136 18.378 7.687 18.249 8.66 18.015 9.453 17.651 10.069 17.159 10.871 16.526 11.537 15.674 12.064 14.602 12.288 14.148 12.465 13.666 12.595 13.157L11.488 18.442H14.142L15.171 13.529H16.867C18.009 13.529 18.789 13.5 19.205 13.442 19.92 13.342 20.488 13.198 20.91 13.011 21.332 12.817 21.724 12.536 22.088 12.167 22.457 11.798 22.767 11.306 23.019 10.69 23.271 10.075 23.397 9.442 23.397 8.792 23.397 8.089 23.239 7.485 22.923 6.981 22.606 6.472 22.176 6.108 21.631 5.892 21.092 5.669 20.356 5.558 19.424 5.558H14.186L12.739 12.468C12.822 11.97 12.864 11.448 12.864 10.901 12.864 10.257 12.796 9.665 12.662 9.126 12.527 8.581 12.333 8.101 12.081 7.685 11.835 7.269 11.539 6.914 11.194 6.621 10.854 6.322 10.473 6.091 10.051 5.927 9.635 5.763 9.16 5.654 8.627 5.602 8.358 5.572 7.74 5.558 6.773 5.558H3.301zM16.392 7.676H18.291C19.152 7.676 19.706 7.723 19.952 7.817 20.204 7.904 20.397 8.048 20.532 8.247 20.673 8.446 20.743 8.701 20.743 9.012 20.743 9.475 20.608 9.899 20.338 10.286 20.069 10.673 19.7 10.954 19.231 11.13 18.762 11.306 17.828 11.394 16.428 11.394H15.61L16.392 7.676zM5.498 7.685H7.037C7.816 7.685 8.358 7.737 8.662 7.843 9.096 7.995 9.459 8.303 9.752 8.766 10.051 9.223 10.201 9.908 10.201 10.822 10.201 11.895 10.022 12.826 9.664 13.617 9.307 14.408 8.868 15.041 8.346 15.516 7.983 15.844 7.581 16.069 7.142 16.192 6.708 16.31 6.005 16.368 5.033 16.368H3.688L5.498 7.685z"/>
    <path id="pdf"           class="svg_path" d="M23.598 15.368c-.71-.76-2.164-1.197-4.224-1.197-1.1 0-2.375.11-3.76.37-.782-.77-1.562-1.67-2.307-2.72-.53-.74-.993-1.52-1.42-2.29.813-2.54 1.206-4.61 1.206-6.1 0-1.672-.603-3.416-2.34-3.416-.533 0-1.066.325-1.35.8-.783 1.408-.43 4.493.917 7.54-.503 1.52-1.035 2.973-1.7 4.605-.578 1.376-1.244 2.794-1.923 4.096C2.793 18.64.267 20.49.03 21.94c-.104.547.074 1.05.457 1.45.133.11.636.545 1.48.545 2.59 0 5.32-4.28 6.707-6.86 1.065-.36 2.13-.687 3.193-1.015 1.168-.323 2.34-.583 3.405-.765 2.735 2.504 5.146 2.9 6.358 2.9 1.492 0 2.024-.617 2.203-1.122.28-.65.07-1.37-.252-1.74l.02.04zm-1.385 1.054c-.104.544-.638.906-1.386.906-.21 0-.39-.037-.603-.072-1.36-.325-2.633-1.016-3.903-2.106 1.25-.214 2.31-.25 2.98-.25.74 0 1.38.032 1.81.144.49.106 1.27.435 1.095 1.38h.02zm-7.523-1.707c-.92.19-1.914.414-2.944.693-.816.223-1.666.474-2.52.77.463-.902.854-1.774 1.208-2.603.428-1.02.78-2.07 1.135-3.046.35.61.74 1.23 1.13 1.78.64.87 1.31 1.7 1.98 2.42v-.02zM10.04 1.23c.145-.29.43-.436.678-.436.745 0 .887.868.887 1.56 0 1.168-.354 2.942-.96 4.967-1.062-2.82-1.135-5.18-.603-6.09zM6.138 18.127C4.328 21.17 2.59 23.06 1.525 23.06c-.21 0-.387-.075-.53-.183-.214-.216-.32-.472-.248-.76.213-1.09 2.236-2.613 5.392-3.99z"/>
    <path id="arrow_right"   class="svg_path" d="M.823.8C.882.8 23.222 12 23.2 12.018 23.125 12.081.817 23.22.809 23.2.804 23.187 1.887 20.662 3.217 17.591L5.634 12.006 3.217 6.43C1.888 3.364.8 .842.8 .827.8 .812.81 .8.823 .8z"/>
    <path id="arrow_left"    class="svg_path" d="M23.177.8C23.118.8 .778 12 .8 12.018.875 12.081 23.183 23.22 23.191 23.2 23.196 23.187 22.113 20.662 20.783 17.591L18.366 12.006 20.783 6.43C22.112 3.364 23.2.842 23.2.827 23.2.812 23.19.8 23.177.8z"/>
    <path id="changelog"     class="svg_path" d="M16.811 0H3v24h18V4.188L16.811 0zM16.499 1.81 19.19 4.5h-2.691V1.81zM4.5 22.5V1.499h10.5v4.501h4.5V22.5H4.5zM6 16.5 6 15 15 15 15 16.5zM6 10.5 6 9 18 9 18 10.5zM6 13.5 6 12 18 12 18 13.5z"/>
</svg>