<svg version="1.1" xmlns="http://www.w3.org/2000/svg">
    <path id="amazon"      class="svg_path" d="M.045 18.02c.072-.116.187-.124.348-.022 3.636 2.11 7.594 3.166 11.87 3.166 2.852 0 5.668-.533 8.447-1.595l.315-.14c.138-.06.234-.1.293-.13.226-.088.39-.046.525.13.12.174.09.336-.12.48-.256.19-.6.41-1.006.654-1.244.743-2.64 1.316-4.185 1.726-1.53.406-3.045.61-4.516.61-2.265 0-4.41-.396-6.435-1.187-2.02-.794-3.82-1.91-5.43-3.35-.1-.074-.15-.15-.15-.22 0-.047.02-.09.05-.13zm6.565-6.218c0-1.005.247-1.863.743-2.577.495-.71 1.17-1.25 2.04-1.615.796-.335 1.756-.575 2.912-.72.39-.046 1.033-.103 1.92-.174v-.37c0-.93-.105-1.558-.3-1.875-.302-.43-.78-.65-1.44-.65h-.182c-.48.046-.896.196-1.246.46-.35.27-.575.63-.675 1.096-.06.3-.206.465-.435.51l-2.52-.315c-.248-.06-.372-.18-.372-.39 0-.046.007-.09.022-.15.247-1.29.855-2.25 1.82-2.88.976-.616 2.1-.975 3.39-1.05h.54c1.65 0 2.957.434 3.888 1.29.135.15.27.3.405.48.12.165.224.314.283.45.075.134.15.33.195.57.06.254.105.42.135.51.03.104.062.3.076.615.01.313.02.493.02.553v5.28c0 .376.06.72.165 1.036.105.313.21.54.315.674l.51.674c.09.136.136.256.136.36 0 .12-.06.226-.18.314-1.2 1.05-1.86 1.62-1.963 1.71-.165.135-.375.15-.63.045-.195-.166-.375-.332-.526-.496l-.31-.347c-.06-.074-.166-.21-.317-.42l-.3-.435c-.81.886-1.603 1.44-2.4 1.665-.494.15-1.093.227-1.83.227-1.11 0-2.04-.343-2.76-1.034-.72-.69-1.08-1.665-1.08-2.94l-.05-.076zm3.753-.438c0 .566.14 1.02.425 1.364.285.34.675.512 1.155.512.045 0 .106-.007.195-.02.09-.016.134-.023.166-.023.614-.16 1.08-.553 1.424-1.178.165-.28.285-.58.36-.91.09-.32.12-.59.135-.8.015-.195.015-.54.015-1.005v-.54c-.84 0-1.484.06-1.92.18-1.275.36-1.92 1.17-1.92 2.43l-.035-.02zm9.162 7.027c.03-.06.075-.11.132-.17.362-.243.714-.41 1.05-.5.55-.133 1.09-.222 1.612-.24.14-.012.28 0 .41.03.65.06 1.05.168 1.172.33.063.09.09.228.09.39v.15c0 .51-.14 1.11-.415 1.8-.278.69-.664 1.248-1.156 1.68-.073.06-.14.09-.197.09-.03 0-.06 0-.09-.012-.09-.044-.107-.12-.064-.24.54-1.26.806-2.143.806-2.64 0-.15-.03-.27-.087-.344-.145-.166-.55-.257-1.224-.257-.243 0-.533.016-.87.046-.363.045-.7.09-1 .135-.09 0-.148-.014-.18-.044-.03-.03-.036-.047-.02-.077 0-.017.006-.03.02-.063v-.06z"/>
    <path id="apple"       class="svg_path" d="M7.078 23.55c-.473-.316-.893-.703-1.244-1.15-.383-.463-.738-.95-1.064-1.454-.766-1.12-1.365-2.345-1.78-3.636-.5-1.502-.743-2.94-.743-4.347 0-1.57.34-2.94 1.002-4.09.49-.9 1.22-1.653 2.1-2.182.85-.53 1.84-.82 2.84-.84.35 0 .73.05 1.13.15.29.08.64.21 1.07.37.55.21.85.34.95.37.32.12.59.17.8.17.16 0 .39-.05.645-.13.145-.05.42-.14.81-.31.386-.14.692-.26.935-.35.37-.11.728-.21 1.05-.26.39-.06.777-.08 1.148-.05.71.05 1.36.2 1.94.42 1.02.41 1.843 1.05 2.457 1.96-.26.16-.5.346-.725.55-.487.43-.9.94-1.23 1.505-.43.77-.65 1.64-.644 2.52.015 1.083.29 2.035.84 2.86.387.6.904 1.114 1.534 1.536.31.21.582.355.84.45-.12.375-.252.74-.405 1.1-.347.807-.76 1.58-1.25 2.31-.432.63-.772 1.1-1.03 1.41-.402.48-.79.84-1.18 1.097-.43.285-.935.436-1.452.436-.35.015-.7-.03-1.034-.127-.29-.095-.576-.202-.856-.323-.293-.134-.596-.248-.905-.34-.38-.1-.77-.148-1.164-.147-.4 0-.79.05-1.16.145-.31.088-.61.196-.907.325-.42.175-.695.29-.855.34-.324.096-.656.154-.99.175-.52 0-1.004-.15-1.486-.45zm6.854-18.46c-.68.34-1.326.484-1.973.436-.1-.646 0-1.31.27-2.037.24-.62.56-1.18 1-1.68.46-.52 1.01-.95 1.63-1.26.66-.34 1.29-.52 1.89-.55.08.68 0 1.35-.25 2.07-.228.64-.568 1.23-1 1.76-.435.52-.975.95-1.586 1.26z"/>
    <path id="download"    class="svg_path" d="M10.125 0h3.75c.623 0 1.125.502 1.125 1.125v7.875h4.111c.834 0 1.252 1.008.661 1.598L12.642 17.733c-.352.352-.928.352-1.28 0L4.223 10.598c-.591-.591-.173-1.598.661-1.598H9V1.125c0-.623.502-1.125 1.125-1.125zm13.875 17.625v5.25c0 .623-.502 1.125-1.125 1.125H1.125c-.623 0-1.125-.502-1.125-1.125V17.625c0-.623.502-1.125 1.125-1.125h6.877l2.297 2.297c.942.942 2.461.942 3.403 0l2.297-2.297H22.875c.623 0 1.125.502 1.125 1.125zm-5.812 4.125c0-.516-.422-.937-.937-.937s-.937.422-.937.938 .422.938 .938.938 .938-.422.938-.937zm3 0c0-.516-.422-.937-.937-.937s-.937.422-.937.938 .422.938 .938.938 .938-.422.938-.937z"/>
    <path id="github"      class="svg_path" d="M12 .297c-6.63 0-12 5.373-12 12 0 5.303 3.438 9.8 8.205 11.385.6.113.82-.258.82-.577 0-.285-.01-1.04-.015-2.04-3.338.724-4.042-1.61-4.042-1.61C4.422 18.07 3.633 17.7 3.633 17.7c-1.087-.744.084-.729.084-.729 1.205.084 1.838 1.236 1.838 1.236 1.07 1.835 2.809 1.305 3.495.998.108-.776.417-1.305.76-1.605-2.665-.3-5.466-1.332-5.466-5.93 0-1.31.465-2.38 1.235-3.22-.135-.303-.54-1.523.105-3.176 0 0 1.005-.322 3.3 1.23.96-.267 1.98-.399 3-.405 1.02.006 2.04.138 3 .405 2.28-1.552 3.285-1.23 3.285-1.23.645 1.653.24 2.873.12 3.176.765.84 1.23 1.91 1.23 3.22 0 4.61-2.805 5.625-5.475 5.92.42.36.81 1.096.81 2.22 0 1.606-.015 2.896-.015 3.286 0 .315.21.69.825.57C20.565 22.092 24 17.592 24 12.297c0-6.627-5.373-12-12-12"/>
    <path id="playstore"   class="svg_path" d="M1.22 0c-.03.093-.06.185-.06.308v23.229c0 .217.061.34.184.463l11.415-12.093L1.22 0zm12.309 12.708l2.951 3.045-4.213 2.4s-5.355 3.044-8.308 4.739l9.57-10.184zm.801-.831l3.166 3.292c.496-.276 4.371-2.492 4.924-2.8.584-.338.525-.8.029-1.046-.459-.255-4.334-2.475-4.92-2.835l-3.203 3.392.004-.003zm-.803-.8l2.984-3.169-4.259-2.431S5.309 1.505 2.999.179l10.53 10.898h-.002z"/>
    <path id="home"        class="svg_path" d="M20.331 14.354V20.325c0 .554-.446 1-1 1H14.498c-.275 0-.5-.225-.5-.5V16.158c0-.275-.225-.5-.5-.5h-3c-.275 0-.5.225-.5.5v4.667c0 .275-.225.5-.5.5H4.665c-.554 0-1-.446-1-1V14.354c0-.15.067-.292.183-.388l7.833-6.45c.183-.15.45-.15.637 0l7.833 6.45c.113.096 .179.238 .179.388zm3.483-2.538L20.331 8.946V3.175c0-.275-.225-.5-.5-.5h-2.333c-.275 0-.5.225-.5.5V6.2l-3.729-3.071c-.737-.608-1.804-.608-2.542 0L.181 11.817c-.212.175-.242.492-.067.704l1.063 1.292c.175.213 .492.242 .704.067l9.8-8.071c.183-.15.45-.15.637 0l9.8 8.071c.213.175 .529.146 .704-.067l1.063-1.292c.175-.217.142-.529-.071-.704z"/>
    <path id="sourceforge" class="svg_path" d="M2.43 11.361c0-.372.303-.705.675-.705h6.968c.271-.003.486-.219.486-.488V8.713c0-.27-.219-.487-.488-.487H2.43C1.088 8.227 0 9.314 0 10.654v2.695c0 1.342 1.086 2.431 2.426 2.431h5.021c.372 0 .676.331.676.706v1.282c0 .371-.304.707-.676.707H.486c-.271 0-.485.217-.485.486v1.453c0 .268.216.486.485.486H8.13c1.34 0 2.426-1.087 2.426-2.427v-2.697c0-1.34-1.086-2.428-2.427-2.428H3.104c-.372 0-.675-.334-.675-.704v-1.283zm21.088-3.13h-5.024V5.525h5.02c.266 0 .483-.217.483-.486V3.585c0-.271-.215-.486-.484-.486h-5.019c-1.34 0-2.427 1.087-2.427 2.427v2.706H13.74c-.27 0-.484.218-.484.485v1.459c0 .268.216.484.483.484h2.325v7.953c0 .24.099.284.303.284.488 0 2.124-.91 2.124-1.688v-6.551h5.024c.266 0 .484-.218.484-.484v-1.46c0-.266-.219-.483-.484-.483h.003z"/>
    <path id="wiki"        class="svg_path" d="M22.5 16.875V1.125c0-.623-.502-1.125-1.125-1.125H6C3.516 0 1.5 2.016 1.5 4.5v15c0 2.484 2.016 4.5 4.5 4.5h15.375c.623 0 1.125-.502 1.125-1.125v-.75c0-.352-.164-.67-.417-.877-.197-.722-.197-2.78 0-3.502.253-.202.417-.52.417-.872zM7.5 6.281c0-.155.127-.281.281-.281h9.938c.155 0 .281.127 .281.281v.938c0 .155-.127.281-.281.281H7.781c-.155 0-.281-.127-.281-.281v-.937zm0 3c0-.155.127-.281.281-.281h9.938c.155 0 .281.127 .281.281v.938c0 .155-.127.281-.281.281H7.781c-.155 0-.281-.127-.281-.281v-.937zm11.878 11.719H6c-.83 0-1.5-.67-1.5-1.5 0-.825.675-1.5 1.5-1.5h13.378c-.089.802-.089 2.198 0 3z"/>
    <path id="windows"     class="svg_path" d="M0 3.449L9.75 2.1v9.451H0m10.949-9.602L24 0v11.4H10.949M0 12.6h9.75v9.451L0 20.699M10.949 12.6H24V24l-12.9-1.801"/>
</svg>